<?xml version="1.0" standalone="no"?>
<!DOCTYPE svg PUBLIC "-//W3C//DTD SVG 20010904//EN"
 "http://www.w3.org/TR/2001/REC-SVG-20010904/DTD/svg10.dtd">
<svg version="1.0" xmlns="http://www.w3.org/2000/svg"
 width="3500.000000pt" height="3500.000000pt" viewBox="0 0 3500.000000 3500.000000"
 preserveAspectRatio="xMidYMid meet">
<metadata>
Created by potrace 1.11, written by Peter Selinger 2001-2013
</metadata>
<g transform="translate(0.000000,3500.000000) scale(0.100000,-0.100000)"
fill="#000000" stroke="none">
<path d="M8977 25829 c-102 -24 -207 -113 -253 -212 l-29 -62 -3 -625 -3 -626
-48 47 c-30 29 -70 55 -104 68 -56 20 -65 20 -1183 21 -1062 1 -1129 0 -1177
-17 -63 -22 -150 -100 -182 -162 l-24 -46 -1 271 c0 150 -5 297 -11 329 -23
123 -93 214 -207 268 l-67 32 -1115 0 -1115 0 -57 -23 c-80 -32 -150 -99 -190
-180 l-33 -67 -3 -7072 -2 -7073 -1585 0 -1585 0 0 -620 0 -620 17500 0 17500
0 0 620 0 620 -2205 0 -2205 0 -2 7068 -3 7067 -32 67 c-40 84 -97 141 -181
181 l-67 32 -1115 0 -1115 0 -55 -22 c-81 -33 -153 -101 -192 -181 l-33 -67
-3 -323 -3 -323 -30 60 c-36 73 -102 133 -173 160 -49 18 -97 19 -1181 22
l-1130 4 -60 -28 c-33 -15 -79 -47 -102 -69 l-42 -41 -3 619 c-3 594 -4 621
-23 666 -49 115 -133 193 -244 228 -62 19 -90 20 -1131 20 -1044 0 -1069 0
-1134 -20 -77 -24 -136 -67 -188 -135 -78 -103 -72 -16 -78 -1193 l-5 -1054
-22 30 c-48 65 -7 62 -901 62 l-809 0 -34 -23 c-18 -12 -44 -38 -56 -56 l-23
-34 0 462 c0 433 -1 464 -19 499 -22 42 -43 63 -88 86 -30 15 -128 16 -1092
14 l-1059 -3 -39 -31 c-21 -16 -45 -44 -53 -62 -8 -17 -17 -32 -20 -32 -3 0
-12 15 -21 32 -8 18 -32 46 -53 62 l-38 31 -1051 3 c-716 2 -1064 0 -1088 -8
-21 -6 -52 -27 -73 -50 l-35 -39 -22 31 c-12 16 -40 39 -63 49 -39 18 -88 19
-1084 19 -853 0 -1049 -2 -1075 -14 -43 -17 -93 -76 -106 -123 -7 -24 -11
-202 -11 -477 l0 -439 -22 33 c-13 18 -39 41 -58 51 -33 18 -76 19 -845 19
-784 0 -811 -1 -842 -19 -17 -11 -42 -34 -55 -51 l-23 -32 -5 1069 -5 1068
-28 57 c-39 79 -104 143 -185 181 l-67 32 -1090 2 c-616 1 -1106 -3 -1128 -8z"/>
</g>
</svg>
